# xmcd
#
# Track frame offsets:
# 150
# 13309
# 29530
# 41940
# 55562
# 71810
# 83975
# 99492
# 114567
# 130320
# 141585
# 155055
# 168712
# 182430
# 196657
# 209342
# 226205
# 238020
# 249722
# 263450
#
# Disc length: 3728 seconds
#
#
# Revision: 0
# Processed by: cddbd v1.5.1PL2 Copyright (c) Steve Scherf et al.
# Submitted via: FreeRIP 2.944 
#
DISCID=230e8e14
DTITLE=João Mulato e Pardinho - 20 Preferidas
DYEAR=1900
DGENRE=Sertanejo
TTITLE0=Contraste
TTITLE1=Beijos diferentes
TTITLE2=Última briga
TTITLE3=Mina de ouro
TTITLE4=Leilão de uma cama
TTITLE5=Intervenção divina
TTITLE6=Gente invejosa
TTITLE7=Prova de fogo
TTITLE8=Viola é luar
TTITLE9=Na fogueira do desejo
TTITLE10=Telefonema
TTITLE11=Amor que não morreu
TTITLE12=Não tem outro jeito
TTITLE13=Nas mãos de Deus
TTITLE14=Adeus martírio
TTITLE15=A pancada da verdade
TTITLE16=Metade de ti
TTITLE17=Coração doido
TTITLE18=Pagode do tubarão
TTITLE19=Sonho de saudade
EXTD=
EXTT0=
EXTT1=
EXTT2=
EXTT3=
EXTT4=
EXTT5=
EXTT6=
EXTT7=
EXTT8=
EXTT9=
EXTT10=
EXTT11=
EXTT12=
EXTT13=
EXTT14=
EXTT15=
EXTT16=
EXTT17=
EXTT18=
EXTT19=
PLAYORDER=
